# Blender v2.78 (sub 0) OBJ File: ''
# www.blender.org
mtllib ConeHole.mtl
o Cube_Cube.003
v 0.043969 -0.350491 1.949914
v -0.956031 -1.041644 2.949914
v -0.956031 0.958356 2.949914
v -0.956031 -1.041644 0.949914
v -0.956031 0.958356 0.949914
v 1.043969 -1.041644 2.949914
v 1.043969 0.958356 2.949914
v 1.043969 -1.041644 0.949914
v 1.043969 0.958356 0.949914
v 0.588102 0.958356 1.586335
v 0.506716 0.958356 1.487166
v 0.648578 0.958356 1.699476
v 0.698393 0.958356 1.949913
v 0.685818 0.958356 1.822242
v 0.407548 0.958356 2.494047
v 0.506717 0.958356 2.412661
v 0.294407 0.958356 2.554522
v 0.407547 0.958356 1.405780
v 0.294406 0.958356 1.345305
v 0.648578 0.958356 2.200351
v 0.685818 0.958356 2.077585
v 0.588103 0.958356 2.313492
v 0.171641 0.958356 2.591763
v 0.171640 0.958356 1.308065
v -0.083702 0.958356 2.591763
v 0.043970 0.958356 2.604337
v -0.206467 0.958356 2.554522
v -0.206468 0.958356 1.345306
v -0.319609 0.958356 1.405781
v -0.083702 0.958356 1.308065
v 0.043969 0.958356 1.295491
v -0.319609 0.958356 2.494047
v -0.418778 0.958356 2.412661
v -0.500164 0.958356 2.313492
v -0.418778 0.958356 1.487167
v -0.500164 0.958356 1.586336
v -0.560639 0.958356 1.699477
v -0.597879 0.958356 1.822242
v -0.610454 0.958356 1.949914
v -0.597879 0.958356 2.077585
v -0.560639 0.958356 2.200351
vn -1.0000 0.0000 0.0000
vn 0.0000 0.0000 -1.0000
vn 1.0000 0.0000 0.0000
vn 0.0000 0.0000 1.0000
vn 0.0000 -1.0000 0.0000
vn 0.0000 1.0000 0.0000
vn 0.8910 0.4455 -0.0878
vn 0.7896 0.4455 -0.4220
vn 0.6921 0.4455 -0.5680
vn -0.8910 0.4455 0.0878
vn 0.8567 0.4455 0.2599
vn 0.8910 0.4455 0.0878
vn 0.6921 0.4455 0.5680
vn -0.0878 0.4455 -0.8910
vn -0.7896 0.4455 0.4220
vn 0.0878 0.4455 -0.8910
vn -0.0877 0.4455 0.8910
vn 0.5680 0.4455 0.6921
vn -0.4220 0.4455 -0.7896
vn 0.4220 0.4455 0.7896
vn 0.5680 0.4455 -0.6921
vn -0.5680 0.4455 0.6921
vn -0.8567 0.4455 0.2599
vn -0.2599 0.4455 0.8567
vn 0.4220 0.4455 -0.7896
vn -0.5680 0.4455 -0.6921
vn -0.7896 0.4455 -0.4220
vn 0.0878 0.4455 0.8910
vn 0.7896 0.4455 0.4220
vn -0.8910 0.4455 -0.0878
vn 0.8567 0.4455 -0.2599
vn -0.2599 0.4455 -0.8567
vn -0.4220 0.4455 0.7896
vn 0.2599 0.4455 0.8567
vn -0.8567 0.4455 -0.2599
vn 0.2599 0.4455 -0.8567
vn -0.6921 0.4455 0.5680
vn -0.6921 0.4455 -0.5680
usemtl None
s off
f 2//1 3//1 5//1 4//1
f 4//2 5//2 9//2 8//2
f 8//3 9//3 7//3 6//3
f 6//4 7//4 3//4 2//4
f 4//5 8//5 6//5 2//5
f 9//6 13//6 21//6 20//6 22//6 16//6 15//6 17//6 23//6 26//6 25//6 27//6 32//6 33//6 34//6 41//6 40//6 39//6 5//6 3//6 7//6
f 40//7 1//7 39//7
f 34//8 1//8 41//8
f 33//9 1//9 34//9
f 14//10 1//10 13//10
f 38//11 1//11 37//11
f 39//12 1//12 38//12
f 36//13 1//13 35//13
f 23//14 1//14 26//14
f 10//15 1//15 12//15
f 26//16 1//16 25//16
f 31//17 1//17 24//17
f 35//18 1//18 29//18
f 15//19 1//19 17//19
f 29//20 1//20 28//20
f 32//21 1//21 33//21
f 18//22 1//22 11//22
f 12//23 1//23 14//23
f 24//24 1//24 19//24
f 5//6 39//6 38//6 37//6 36//6 35//6 29//6 28//6 30//6 31//6 24//6 19//6 18//6 11//6 10//6 12//6 14//6 13//6 9//6
f 27//25 1//25 32//25
f 16//26 1//26 15//26
f 20//27 1//27 22//27
f 30//28 1//28 31//28
f 37//29 1//29 36//29
f 13//30 1//30 21//30
f 41//31 1//31 40//31
f 17//32 1//32 23//32
f 19//33 1//33 18//33
f 28//34 1//34 30//34
f 21//35 1//35 20//35
f 25//36 1//36 27//36
f 11//37 1//37 10//37
f 22//38 1//38 16//38
